<?xml version="1.0" encoding="UTF-8" standalone="no"?>
<!DOCTYPE svg PUBLIC "-//W3C//DTD SVG 1.1//EN"
 "http://www.w3.org/Graphics/SVG/1.1/DTD/svg11.dtd">
<!-- Generated by graphviz version 15.0.0 (20260523.1842)
 -->
<!-- Title: G Pages: 1 -->
<svg width="1282pt" height="246pt"
 viewBox="13.00 13.00 1269.00 233.00" xmlns="http://www.w3.org/2000/svg" xmlns:xlink="http://www.w3.org/1999/xlink">
<g id="graph0" class="graph" transform="scale(1 1) rotate(0) translate(16.96 229.46)">
<title>G</title>
<polygon fill="#f6f9fc" stroke="none" points="-4,4 -4,-216.5 1252.5,-216.5 1252.5,4 -4,4"/>
<text xml:space="preserve" text-anchor="middle" x="624.25" y="-195.2" font-family="Times,serif" font-size="14.00">Spring Boot OCR API Architecture</text>
<!-- client -->
<g id="node1" class="node">
<title>client</title>
<path fill="#ffffff" stroke="#9aa8b8" d="M42,-112C42,-112 12,-112 12,-112 6,-112 0,-106 0,-100 0,-100 0,-88 0,-88 0,-82 6,-76 12,-76 12,-76 42,-76 42,-76 48,-76 54,-82 54,-88 54,-88 54,-100 54,-100 54,-106 48,-112 42,-112"/>
<text xml:space="preserve" text-anchor="middle" x="27" y="-89.92" font-family="Comic Mono" font-size="11.00">Client</text>
</g>
<!-- controller -->
<g id="node2" class="node">
<title>controller</title>
<path fill="#ffffff" stroke="#9aa8b8" d="M244.75,-112C244.75,-112 156.75,-112 156.75,-112 150.75,-112 144.75,-106 144.75,-100 144.75,-100 144.75,-88 144.75,-88 144.75,-82 150.75,-76 156.75,-76 156.75,-76 244.75,-76 244.75,-76 250.75,-76 256.75,-82 256.75,-88 256.75,-88 256.75,-100 256.75,-100 256.75,-106 250.75,-112 244.75,-112"/>
<text xml:space="preserve" text-anchor="middle" x="200.75" y="-89.92" font-family="Comic Mono" font-size="11.00">OcrApiController</text>
</g>
<!-- client&#45;&gt;controller -->
<g id="edge1" class="edge">
<title>client&#45;&gt;controller</title>
<path fill="none" stroke="#758297" d="M54.46,-94C75.47,-94 105.78,-94 133.28,-94"/>
<polygon fill="#758297" stroke="#758297" points="132.95,-97.5 142.95,-94 132.95,-90.5 132.95,-97.5"/>
<text xml:space="preserve" text-anchor="middle" x="99.38" y="-95.95" font-family="Comic Mono" font-size="9.00">request</text>
</g>
<!-- service -->
<g id="node3" class="node">
<title>service</title>
<path fill="#ffffff" stroke="#9aa8b8" d="M476.75,-112C476.75,-112 364.75,-112 364.75,-112 358.75,-112 352.75,-106 352.75,-100 352.75,-100 352.75,-88 352.75,-88 352.75,-82 358.75,-76 364.75,-76 364.75,-76 476.75,-76 476.75,-76 482.75,-76 488.75,-82 488.75,-88 488.75,-88 488.75,-100 488.75,-100 488.75,-106 482.75,-112 476.75,-112"/>
<text xml:space="preserve" text-anchor="middle" x="420.75" y="-89.92" font-family="Comic Mono" font-size="11.00">SpringBootOcrService</text>
</g>
<!-- controller&#45;&gt;service -->
<g id="edge2" class="edge">
<title>controller&#45;&gt;service</title>
<path fill="none" stroke="#758297" d="M257.04,-94C282.54,-94 313.27,-94 341.12,-94"/>
<polygon fill="#758297" stroke="#758297" points="340.94,-97.5 350.94,-94 340.94,-90.5 340.94,-97.5"/>
<text xml:space="preserve" text-anchor="middle" x="304.75" y="-95.95" font-family="Comic Mono" font-size="9.00">delegate</text>
</g>
<!-- image -->
<g id="node4" class="node">
<title>image</title>
<path fill="#ffffff" stroke="#9aa8b8" d="M690,-188C690,-188 614,-188 614,-188 608,-188 602,-182 602,-176 602,-176 602,-164 602,-164 602,-158 608,-152 614,-152 614,-152 690,-152 690,-152 696,-152 702,-158 702,-164 702,-164 702,-176 702,-176 702,-182 696,-188 690,-188"/>
<text xml:space="preserve" text-anchor="middle" x="652" y="-165.93" font-family="Comic Mono" font-size="11.00">ImmutableImage</text>
</g>
<!-- service&#45;&gt;image -->
<g id="edge3" class="edge">
<title>service&#45;&gt;image</title>
<path fill="none" stroke="#758297" d="M477.54,-112.49C511.89,-123.88 555.91,-138.48 591.01,-150.11"/>
<polygon fill="#758297" stroke="#758297" points="589.57,-153.32 600.16,-153.15 591.77,-146.68 589.57,-153.32"/>
<text xml:space="preserve" text-anchor="middle" x="539.38" y="-140.76" font-family="Comic Mono" font-size="9.00">decode</text>
</g>
<!-- options -->
<g id="node5" class="node">
<title>options</title>
<path fill="#ffffff" stroke="#9aa8b8" d="M678,-112C678,-112 626,-112 626,-112 620,-112 614,-106 614,-100 614,-100 614,-88 614,-88 614,-82 620,-76 626,-76 626,-76 678,-76 678,-76 684,-76 690,-82 690,-88 690,-88 690,-100 690,-100 690,-106 684,-112 678,-112"/>
<text xml:space="preserve" text-anchor="middle" x="652" y="-89.92" font-family="Comic Mono" font-size="11.00">OcrOptions</text>
</g>
<!-- service&#45;&gt;options -->
<g id="edge4" class="edge">
<title>service&#45;&gt;options</title>
<path fill="none" stroke="#758297" d="M488.98,-94C525.38,-94 569.52,-94 602.53,-94"/>
<polygon fill="#758297" stroke="#758297" points="602.2,-97.5 612.2,-94 602.2,-90.5 602.2,-97.5"/>
<text xml:space="preserve" text-anchor="middle" x="539.38" y="-95.95" font-family="Comic Mono" font-size="9.00">configure</text>
</g>
<!-- extract -->
<g id="node6" class="node">
<title>extract</title>
<path fill="#ffffff" stroke="#9aa8b8" d="M702,-36C702,-36 602,-36 602,-36 596,-36 590,-30 590,-24 590,-24 590,-12 590,-12 590,-6 596,0 602,0 602,0 702,0 702,0 708,0 714,-6 714,-12 714,-12 714,-24 714,-24 714,-30 708,-36 702,-36"/>
<text xml:space="preserve" text-anchor="middle" x="652" y="-13.93" font-family="Comic Mono" font-size="11.00">suspendExtractText</text>
</g>
<!-- service&#45;&gt;extract -->
<g id="edge5" class="edge">
<title>service&#45;&gt;extract</title>
<path fill="none" stroke="#758297" d="M477.54,-75.51C509.83,-64.8 550.66,-51.26 584.6,-40.01"/>
<polygon fill="#758297" stroke="#758297" points="585.53,-43.39 593.92,-36.92 583.33,-36.75 585.53,-43.39"/>
<text xml:space="preserve" text-anchor="middle" x="539.38" y="-64.76" font-family="Comic Mono" font-size="9.00">suspend</text>
</g>
<!-- engine -->
<g id="node7" class="node">
<title>engine</title>
<path fill="#ffffff" stroke="#9aa8b8" d="M911.5,-36C911.5,-36 811.5,-36 811.5,-36 805.5,-36 799.5,-30 799.5,-24 799.5,-24 799.5,-12 799.5,-12 799.5,-6 805.5,0 811.5,0 811.5,0 911.5,0 911.5,0 917.5,0 923.5,-6 923.5,-12 923.5,-12 923.5,-24 923.5,-24 923.5,-30 917.5,-36 911.5,-36"/>
<text xml:space="preserve" text-anchor="middle" x="861.5" y="-13.93" font-family="Comic Mono" font-size="11.00">TesseractOcrEngine</text>
</g>
<!-- extract&#45;&gt;engine -->
<g id="edge6" class="edge">
<title>extract&#45;&gt;engine</title>
<path fill="none" stroke="#758297" d="M714.41,-18C737.52,-18 764.02,-18 788.04,-18"/>
<polygon fill="#758297" stroke="#758297" points="787.73,-21.5 797.73,-18 787.73,-14.5 787.73,-21.5"/>
<text xml:space="preserve" text-anchor="middle" x="756.75" y="-19.95" font-family="Comic Mono" font-size="9.00">engine</text>
</g>
<!-- tess4j -->
<g id="node8" class="node">
<title>tess4j</title>
<path fill="#ffffff" stroke="#9aa8b8" d="M1051,-36C1051,-36 1021,-36 1021,-36 1015,-36 1009,-30 1009,-24 1009,-24 1009,-12 1009,-12 1009,-6 1015,0 1021,0 1021,0 1051,0 1051,0 1057,0 1063,-6 1063,-12 1063,-12 1063,-24 1063,-24 1063,-30 1057,-36 1051,-36"/>
<text xml:space="preserve" text-anchor="middle" x="1036" y="-13.93" font-family="Comic Mono" font-size="11.00">Tess4J</text>
</g>
<!-- engine&#45;&gt;tess4j -->
<g id="edge7" class="edge">
<title>engine&#45;&gt;tess4j</title>
<path fill="none" stroke="#758297" d="M923.8,-18C948.32,-18 975.77,-18 997.26,-18"/>
<polygon fill="#758297" stroke="#758297" points="997.02,-21.5 1007.02,-18 997.02,-14.5 997.02,-21.5"/>
<text xml:space="preserve" text-anchor="middle" x="966.25" y="-19.95" font-family="Comic Mono" font-size="9.00">client</text>
</g>
<!-- tesseract -->
<g id="node9" class="node">
<title>tesseract</title>
<path fill="#ffffff" stroke="#9aa8b8" d="M1236.5,-36C1236.5,-36 1160.5,-36 1160.5,-36 1154.5,-36 1148.5,-30 1148.5,-24 1148.5,-24 1148.5,-12 1148.5,-12 1148.5,-6 1154.5,0 1160.5,0 1160.5,0 1236.5,0 1236.5,0 1242.5,0 1248.5,-6 1248.5,-12 1248.5,-12 1248.5,-24 1248.5,-24 1248.5,-30 1242.5,-36 1236.5,-36"/>
<text xml:space="preserve" text-anchor="middle" x="1198.5" y="-13.93" font-family="Comic Mono" font-size="11.00">Host Tesseract</text>
</g>
<!-- tess4j&#45;&gt;tesseract -->
<g id="edge8" class="edge">
<title>tess4j&#45;&gt;tesseract</title>
<path fill="none" stroke="#758297" d="M1063.14,-18C1083.02,-18 1111.18,-18 1136.59,-18"/>
<polygon fill="#758297" stroke="#758297" points="1136.52,-21.5 1146.52,-18 1136.52,-14.5 1136.52,-21.5"/>
<text xml:space="preserve" text-anchor="middle" x="1105.75" y="-19.95" font-family="Comic Mono" font-size="9.00">native</text>
</g>
</g>
</svg>
