<?xml version="1.0" encoding="UTF-8" standalone="no"?>
<!DOCTYPE svg PUBLIC "-//W3C//DTD SVG 1.1//EN"
 "http://www.w3.org/Graphics/SVG/1.1/DTD/svg11.dtd">
<!-- Generated by graphviz version 15.0.0 (20260523.1842)
 -->
<!-- Title: G Pages: 1 -->
<svg width="614pt" height="246pt"
 viewBox="13.00 13.00 601.00 233.00" xmlns="http://www.w3.org/2000/svg" xmlns:xlink="http://www.w3.org/1999/xlink">
<g id="graph0" class="graph" transform="scale(1 1) rotate(0) translate(16.96 229.46)">
<title>G</title>
<polygon fill="#f6f9fc" stroke="none" points="-4,4 -4,-216.5 584,-216.5 584,4 -4,4"/>
<text xml:space="preserve" text-anchor="middle" x="290" y="-195.2" font-family="Times,serif" font-size="14.00">Ktor Image API Scenario</text>
<!-- client -->
<g id="node1" class="node">
<title>client</title>
<path fill="#ffffff" stroke="#9aa8b8" d="M76,-112C76,-112 12,-112 12,-112 6,-112 0,-106 0,-100 0,-100 0,-88 0,-88 0,-82 6,-76 12,-76 12,-76 76,-76 76,-76 82,-76 88,-82 88,-88 88,-88 88,-100 88,-100 88,-106 82,-112 76,-112"/>
<text xml:space="preserve" text-anchor="middle" x="44" y="-89.92" font-family="Comic Mono" font-size="11.00">Local client</text>
</g>
<!-- server -->
<g id="node2" class="node">
<title>server</title>
<path fill="#ffffff" stroke="#9aa8b8" d="M248,-112C248,-112 154,-112 154,-112 148,-112 142,-106 142,-100 142,-100 142,-88 142,-88 142,-82 148,-76 154,-76 154,-76 248,-76 248,-76 254,-76 260,-82 260,-88 260,-88 260,-100 260,-100 260,-106 254,-112 248,-112"/>
<text xml:space="preserve" text-anchor="middle" x="201" y="-89.92" font-family="Comic Mono" font-size="11.00">Ktor Netty server</text>
</g>
<!-- client&#45;&gt;server -->
<g id="edge1" class="edge">
<title>client&#45;&gt;server</title>
<path fill="none" stroke="#758297" d="M88.18,-94C101.25,-94 115.96,-94 130.31,-94"/>
<polygon fill="#758297" stroke="#758297" points="130.19,-97.5 140.19,-94 130.19,-90.5 130.19,-97.5"/>
</g>
<!-- ready -->
<g id="node3" class="node">
<title>ready</title>
<path fill="#ffffff" stroke="#9aa8b8" d="M405,-188C405,-188 329,-188 329,-188 323,-188 317,-182 317,-176 317,-176 317,-164 317,-164 317,-158 323,-152 329,-152 329,-152 405,-152 405,-152 411,-152 417,-158 417,-164 417,-164 417,-176 417,-176 417,-182 411,-188 405,-188"/>
<text xml:space="preserve" text-anchor="middle" x="367" y="-165.93" font-family="Comic Mono" font-size="11.00">Ready endpoint</text>
</g>
<!-- server&#45;&gt;ready -->
<g id="edge2" class="edge">
<title>server&#45;&gt;ready</title>
<path fill="none" stroke="#758297" d="M241.7,-112.4C264,-122.73 292.04,-135.72 315.84,-146.76"/>
<polygon fill="#758297" stroke="#758297" points="314.18,-149.84 324.72,-150.87 317.12,-143.49 314.18,-149.84"/>
</g>
<!-- captcha -->
<g id="node4" class="node">
<title>captcha</title>
<path fill="#ffffff" stroke="#9aa8b8" d="M405,-112C405,-112 329,-112 329,-112 323,-112 317,-106 317,-100 317,-100 317,-88 317,-88 317,-82 323,-76 329,-76 329,-76 405,-76 405,-76 411,-76 417,-82 417,-88 417,-88 417,-100 417,-100 417,-106 411,-112 405,-112"/>
<text xml:space="preserve" text-anchor="middle" x="367" y="-89.92" font-family="Comic Mono" font-size="11.00">CAPTCHA routes</text>
</g>
<!-- server&#45;&gt;captcha -->
<g id="edge3" class="edge">
<title>server&#45;&gt;captcha</title>
<path fill="none" stroke="#758297" d="M260.28,-94C274.81,-94 290.43,-94 305.08,-94"/>
<polygon fill="#758297" stroke="#758297" points="305.07,-97.5 315.07,-94 305.07,-90.5 305.07,-97.5"/>
</g>
<!-- thumb -->
<g id="node5" class="node">
<title>thumb</title>
<path fill="#ffffff" stroke="#9aa8b8" d="M408,-36C408,-36 326,-36 326,-36 320,-36 314,-30 314,-24 314,-24 314,-12 314,-12 314,-6 320,0 326,0 326,0 408,0 408,0 414,0 420,-6 420,-12 420,-12 420,-24 420,-24 420,-30 414,-36 408,-36"/>
<text xml:space="preserve" text-anchor="middle" x="367" y="-13.93" font-family="Comic Mono" font-size="11.00">Thumbnail route</text>
</g>
<!-- server&#45;&gt;thumb -->
<g id="edge4" class="edge">
<title>server&#45;&gt;thumb</title>
<path fill="none" stroke="#758297" d="M241.7,-75.6C264,-65.27 292.04,-52.28 315.84,-41.24"/>
<polygon fill="#758297" stroke="#758297" points="317.12,-44.51 324.72,-37.13 314.18,-38.16 317.12,-44.51"/>
</g>
<!-- response -->
<g id="node6" class="node">
<title>response</title>
<path fill="#ffffff" stroke="#9aa8b8" d="M568,-74C568,-74 486,-74 486,-74 480,-74 474,-68 474,-62 474,-62 474,-50 474,-50 474,-44 480,-38 486,-38 486,-38 568,-38 568,-38 574,-38 580,-44 580,-50 580,-50 580,-62 580,-62 580,-68 574,-74 568,-74"/>
<text xml:space="preserve" text-anchor="middle" x="527" y="-51.92" font-family="Comic Mono" font-size="11.00">Local responses</text>
</g>
<!-- captcha&#45;&gt;response -->
<g id="edge5" class="edge">
<title>captcha&#45;&gt;response</title>
<path fill="none" stroke="#758297" d="M417.13,-82.18C431.56,-78.71 447.55,-74.87 462.74,-71.21"/>
<polygon fill="#758297" stroke="#758297" points="463.24,-74.69 472.15,-68.95 461.61,-67.89 463.24,-74.69"/>
</g>
<!-- thumb&#45;&gt;response -->
<g id="edge6" class="edge">
<title>thumb&#45;&gt;response</title>
<path fill="none" stroke="#758297" d="M420.17,-30.55C433.72,-33.81 448.46,-37.35 462.52,-40.73"/>
<polygon fill="#758297" stroke="#758297" points="461.6,-44.11 472.14,-43.05 463.24,-37.31 461.6,-44.11"/>
</g>
</g>
</svg>
