<?xml version="1.0" encoding="UTF-8" standalone="no"?>
<!DOCTYPE svg PUBLIC "-//W3C//DTD SVG 1.1//EN"
 "http://www.w3.org/Graphics/SVG/1.1/DTD/svg11.dtd">
<!-- Generated by graphviz version 15.0.0 (20260523.1842)
 -->
<!-- Title: G Pages: 1 -->
<svg width="1048pt" height="170pt"
 viewBox="13.00 13.00 1035.00 157.00" xmlns="http://www.w3.org/2000/svg" xmlns:xlink="http://www.w3.org/1999/xlink">
<g id="graph0" class="graph" transform="scale(1 1) rotate(0) translate(16.96 153.46)">
<title>G</title>
<polygon fill="#f6f9fc" stroke="none" points="-4,4 -4,-140.5 1018.5,-140.5 1018.5,4 -4,4"/>
<text xml:space="preserve" text-anchor="middle" x="507.25" y="-119.2" font-family="Times,serif" font-size="14.00">Spring Boot Image API Architecture</text>
<!-- boot -->
<g id="node1" class="node">
<title>boot</title>
<path fill="#ffffff" stroke="#9aa8b8" d="M106,-112C106,-112 12,-112 12,-112 6,-112 0,-106 0,-100 0,-100 0,-88 0,-88 0,-82 6,-76 12,-76 12,-76 106,-76 106,-76 112,-76 118,-82 118,-88 118,-88 118,-100 118,-100 118,-106 112,-112 106,-112"/>
<text xml:space="preserve" text-anchor="middle" x="59" y="-89.92" font-family="Comic Mono" font-size="11.00">Spring Boot 4 app</text>
</g>
<!-- controller -->
<g id="node2" class="node">
<title>controller</title>
<path fill="#ffffff" stroke="#9aa8b8" d="M329,-112C329,-112 229,-112 229,-112 223,-112 217,-106 217,-100 217,-100 217,-88 217,-88 217,-82 223,-76 229,-76 229,-76 329,-76 329,-76 335,-76 341,-82 341,-88 341,-88 341,-100 341,-100 341,-106 335,-112 329,-112"/>
<text xml:space="preserve" text-anchor="middle" x="279" y="-89.92" font-family="Comic Mono" font-size="11.00">ImageApiController</text>
</g>
<!-- boot&#45;&gt;controller -->
<g id="edge1" class="edge">
<title>boot&#45;&gt;controller</title>
<path fill="none" stroke="#758297" d="M118.42,-94C145.13,-94 177.06,-94 205.31,-94"/>
<polygon fill="#758297" stroke="#758297" points="205.24,-97.5 215.24,-94 205.24,-90.5 205.24,-97.5"/>
<text xml:space="preserve" text-anchor="middle" x="155.5" y="-95.95" font-family="Comic Mono" font-size="9.00">scan</text>
</g>
<!-- service -->
<g id="node4" class="node">
<title>service</title>
<path fill="#ffffff" stroke="#9aa8b8" d="M585,-64C585,-64 473,-64 473,-64 467,-64 461,-58 461,-52 461,-52 461,-40 461,-40 461,-34 467,-28 473,-28 473,-28 585,-28 585,-28 591,-28 597,-34 597,-40 597,-40 597,-52 597,-52 597,-58 591,-64 585,-64"/>
<text xml:space="preserve" text-anchor="middle" x="529" y="-41.92" font-family="Comic Mono" font-size="11.00">LocalImageApiService</text>
</g>
<!-- controller&#45;&gt;service -->
<g id="edge3" class="edge">
<title>controller&#45;&gt;service</title>
<path fill="none" stroke="#758297" d="M341.3,-82.13C374.05,-75.8 414.71,-67.93 449.72,-61.15"/>
<polygon fill="#758297" stroke="#758297" points="450.23,-64.62 459.38,-59.28 448.9,-57.74 450.23,-64.62"/>
<text xml:space="preserve" text-anchor="middle" x="413" y="-73.39" font-family="Comic Mono" font-size="9.00">delegate</text>
</g>
<!-- config -->
<g id="node3" class="node">
<title>config</title>
<path fill="#ffffff" stroke="#9aa8b8" d="M353,-36C353,-36 205,-36 205,-36 199,-36 193,-30 193,-24 193,-24 193,-12 193,-12 193,-6 199,0 205,0 205,0 353,0 353,0 359,0 365,-6 365,-12 365,-12 365,-24 365,-24 365,-30 359,-36 353,-36"/>
<text xml:space="preserve" text-anchor="middle" x="279" y="-13.93" font-family="Comic Mono" font-size="11.00">LocalImageApiConfiguration</text>
</g>
<!-- config&#45;&gt;service -->
<g id="edge2" class="edge">
<title>config&#45;&gt;service</title>
<path fill="none" stroke="#758297" d="M365.39,-18.02C387.79,-18.85 411.87,-20.49 434,-23.5 439,-24.18 444.12,-25.01 449.26,-25.95"/>
<polygon fill="#758297" stroke="#758297" points="448.56,-29.38 459.05,-27.86 449.9,-22.51 448.56,-29.38"/>
<text xml:space="preserve" text-anchor="middle" x="413" y="-25.45" font-family="Comic Mono" font-size="9.00">bean</text>
</g>
<!-- storage -->
<g id="node5" class="node">
<title>storage</title>
<path fill="#ffffff" stroke="#9aa8b8" d="M805.75,-64C805.75,-64 741.75,-64 741.75,-64 735.75,-64 729.75,-58 729.75,-52 729.75,-52 729.75,-40 729.75,-40 729.75,-34 735.75,-28 741.75,-28 741.75,-28 805.75,-28 805.75,-28 811.75,-28 817.75,-34 817.75,-40 817.75,-40 817.75,-52 817.75,-52 817.75,-58 811.75,-64 805.75,-64"/>
<text xml:space="preserve" text-anchor="middle" x="773.75" y="-41.92" font-family="Comic Mono" font-size="11.00">ImageStorage</text>
</g>
<!-- service&#45;&gt;storage -->
<g id="edge4" class="edge">
<title>service&#45;&gt;storage</title>
<path fill="none" stroke="#758297" d="M597.3,-46C635.41,-46 682.46,-46 718.24,-46"/>
<polygon fill="#758297" stroke="#758297" points="717.92,-49.5 727.92,-46 717.92,-42.5 717.92,-49.5"/>
<text xml:space="preserve" text-anchor="middle" x="663.38" y="-47.95" font-family="Comic Mono" font-size="9.00">upload/download</text>
</g>
<!-- files -->
<g id="node6" class="node">
<title>files</title>
<path fill="#ffffff" stroke="#9aa8b8" d="M1002.5,-64C1002.5,-64 920.5,-64 920.5,-64 914.5,-64 908.5,-58 908.5,-52 908.5,-52 908.5,-40 908.5,-40 908.5,-34 914.5,-28 920.5,-28 920.5,-28 1002.5,-28 1002.5,-28 1008.5,-28 1014.5,-34 1014.5,-40 1014.5,-40 1014.5,-52 1014.5,-52 1014.5,-58 1008.5,-64 1002.5,-64"/>
<text xml:space="preserve" text-anchor="middle" x="961.5" y="-41.92" font-family="Comic Mono" font-size="11.00">Filesystem root</text>
</g>
<!-- storage&#45;&gt;files -->
<g id="edge5" class="edge">
<title>storage&#45;&gt;files</title>
<path fill="none" stroke="#758297" d="M817.83,-46C841.26,-46 870.7,-46 896.74,-46"/>
<polygon fill="#758297" stroke="#758297" points="896.53,-49.5 906.53,-46 896.53,-42.5 896.53,-49.5"/>
<text xml:space="preserve" text-anchor="middle" x="863.12" y="-47.95" font-family="Comic Mono" font-size="9.00">persist</text>
</g>
</g>
</svg>
