<svg xmlns="http://www.w3.org/2000/svg" width="1754" height="1180" viewBox="0 0 1754 1180" role="img" aria-label="Image Analysis">
<defs>
  <filter id="shadow" x="-8%" y="-8%" width="116%" height="116%"><feDropShadow dx="0" dy="8" stdDeviation="9" flood-color="#1f2937" flood-opacity="0.10"/></filter>
  <marker id="openArrow" markerWidth="12" markerHeight="10" refX="10" refY="5" orient="auto" markerUnits="strokeWidth"><path d="M 1 1 L 10 5 L 1 9" fill="none" stroke="#758297" stroke-width="1.8" stroke-linecap="round" stroke-linejoin="round"/></marker>
  <marker id="inherit" markerWidth="14" markerHeight="12" refX="12" refY="6" orient="auto" markerUnits="strokeWidth"><path d="M 0 1 L 12 6 L 0 11 Z" fill="#ffffff" stroke="#758297" stroke-width="1.8"/></marker>
  <style>
    .canvas{fill:#f7f9fc}.frame{fill:#fff;stroke:#d8e0ea;stroke-width:1.5}
    .title{font-family:"Architects Daughter","Comic Sans MS","Comic Sans",cursive;font-size:43px;font-weight:400;fill:#102033}
    .subtitle{font-family:"Comic Sans MS","Comic Sans","Comic Neue",Arial,sans-serif;font-size:15px;font-weight:400;fill:#536273}
    .label{font-family:"Architects Daughter","Comic Sans MS","Comic Sans",cursive;font-size:25px;font-weight:400;fill:#102033}
    .smallLabel{font-family:"Architects Daughter","Comic Sans MS","Comic Sans",cursive;font-size:21px;font-weight:400;fill:#102033}
    .mono{font-family:"Comic Sans MS","Comic Sans","Comic Neue",Arial,sans-serif;font-size:12px;font-weight:400;fill:#102033}
    .small{font-family:"Comic Sans MS","Comic Sans","Comic Neue",Arial,sans-serif;font-size:12px;font-weight:400;fill:#536273}
    .strong{font-family:"Comic Sans MS","Comic Sans","Comic Neue",Arial,sans-serif;font-size:13px;font-weight:400;fill:#102033}
    .card{stroke-width:2.1;filter:url(#shadow)}.compartment{stroke-width:1.5;fill:none}
    .line{stroke:#758297;stroke-width:2.1;fill:none;marker-end:url(#openArrow)}
    .plainLine{stroke:#758297;stroke-width:2.1;fill:none}
    .dashed{stroke:#758297;stroke-width:2.1;stroke-dasharray:7 6;fill:none;marker-end:url(#openArrow)}
    .inheritLine{stroke:#758297;stroke-width:2.2;fill:none;marker-end:url(#inherit)}
    .implLine{stroke:#758297;stroke-width:2.2;stroke-dasharray:8 7;fill:none;marker-end:url(#inherit)}
  </style>
</defs>
<rect class="canvas" width="1754" height="1180"/>
<rect class="frame" x="32" y="28" width="1690" height="1124" rx="28"/>
<text class="title" x="66" y="82">Image Analysis</text>
<text class="subtitle" x="70" y="118">UML classes from the original Mermaid source</text>
<path class="line" d="M1492 428 C1492 483 1082 483 1082 538"/>
<path class="line" d="M1492 428 C1492 483 1492 483 1492 538"/>
<path class="line" d="M1492 428 C1492 483 262 483 262 538"/>
<path class="line" d="M672 538 C672 447 262 447 262 356"/>
<path class="line" d="M672 538 C672 483 672 483 672 428"/>
<path class="line" d="M672 428 C672 606 877 606 877 784"/>
<path class="implLine" d="M877 784 C877 546 1082 546 1082 308"/>
<g transform="translate(92,180)">
  <rect class="card" x="0" y="0" width="340" height="168" rx="5" fill="#E8F3FF" stroke="#5B8DEF"/>
  <line class="compartment" x1="0" y1="78" x2="340" y2="78" stroke="#5B8DEF"/>
  <text class="small" x="170" y="26" text-anchor="middle"></text>
  <text class="label" x="170" y="57" text-anchor="middle">BlurScore</text>
  <text class="mono" x="18" y="108">+score: Double</text>
<text class="mono" x="18" y="132">+threshold: Double</text>
<text class="mono" x="18" y="156">+isBlurry: Boolean</text>
</g>
<g transform="translate(502,180)">
  <rect class="card" x="0" y="0" width="340" height="240" rx="5" fill="#EAF7EF" stroke="#58A978"/>
  <line class="compartment" x1="0" y1="78" x2="340" y2="78" stroke="#58A978"/>
  <text class="small" x="170" y="26" text-anchor="middle"></text>
  <text class="label" x="170" y="57" text-anchor="middle">DominantColor</text>
  <text class="mono" x="18" y="108">+r: Int</text>
<text class="mono" x="18" y="132">+g: Int</text>
<text class="mono" x="18" y="156">+b: Int</text>
<text class="mono" x="18" y="180">+population: Int</text>
<text class="mono" x="18" y="204">+hex: String</text>
<text class="mono" x="18" y="228">+toAwtColor() Color</text>
</g>
<g transform="translate(912,180)">
  <rect class="card" x="0" y="0" width="340" height="120" rx="5" fill="#FFF3D9" stroke="#D6A441"/>
  <line class="compartment" x1="0" y1="78" x2="340" y2="78" stroke="#D6A441"/>
  <text class="small" x="170" y="26" text-anchor="middle">«sealed interface»</text>
  <text class="label" x="170" y="57" text-anchor="middle">DominantColorExtractor</text>
  <text class="mono" x="18" y="108">+extract(image, count) List~DominantColor~</text>
</g>
<g transform="translate(1322,180)">
  <rect class="card" x="0" y="0" width="340" height="240" rx="5" fill="#FDECEF" stroke="#DC6B82"/>
  <line class="compartment" x1="0" y1="78" x2="340" y2="78" stroke="#DC6B82"/>
  <text class="small" x="170" y="26" text-anchor="middle"></text>
  <text class="label" x="170" y="57" text-anchor="middle">ExifData</text>
  <text class="mono" x="18" y="108">+gpsLatitude: Double?</text>
<text class="mono" x="18" y="132">+gpsLongitude: Double?</text>
<text class="mono" x="18" y="156">+dateTimeOriginal: LocalDateTime?</text>
<text class="mono" x="18" y="180">+cameraMake: String?</text>
<text class="mono" x="18" y="204">+iso: Int?</text>
<text class="mono" x="18" y="228">+hasGps: Boolean</text>
</g>
<g transform="translate(92,546)">
  <rect class="card" x="0" y="0" width="340" height="96" rx="5" fill="#E9F7F6" stroke="#45A7A1"/>
  <line class="compartment" x1="0" y1="78" x2="340" y2="78" stroke="#45A7A1"/>
  <text class="small" x="170" y="26" text-anchor="middle"></text>
  <text class="label" x="170" y="57" text-anchor="middle">File</text>

</g>
<g transform="translate(502,546)">
  <rect class="card" x="0" y="0" width="340" height="96" rx="5" fill="#F1ECFF" stroke="#8A72D6"/>
  <line class="compartment" x1="0" y1="78" x2="340" y2="78" stroke="#8A72D6"/>
  <text class="small" x="170" y="26" text-anchor="middle"></text>
  <text class="label" x="170" y="57" text-anchor="middle">ImmutableImage</text>

</g>
<g transform="translate(912,546)">
  <rect class="card" x="0" y="0" width="340" height="96" rx="5" fill="#F7F1E7" stroke="#B88A44"/>
  <line class="compartment" x1="0" y1="78" x2="340" y2="78" stroke="#B88A44"/>
  <text class="small" x="170" y="26" text-anchor="middle"></text>
  <text class="label" x="170" y="57" text-anchor="middle">InputStream</text>

</g>
<g transform="translate(1322,546)">
  <rect class="card" x="0" y="0" width="340" height="96" rx="5" fill="#EEF6D9" stroke="#8BA84D"/>
  <line class="compartment" x1="0" y1="78" x2="340" y2="78" stroke="#8BA84D"/>
  <text class="small" x="170" y="26" text-anchor="middle"></text>
  <text class="label" x="170" y="57" text-anchor="middle">Path</text>

</g>
<g transform="translate(707,792)">
  <rect class="card" x="0" y="0" width="340" height="168" rx="5" fill="#E8F3FF" stroke="#5B8DEF"/>
  <line class="compartment" x1="0" y1="78" x2="340" y2="78" stroke="#5B8DEF"/>
  <text class="small" x="170" y="26" text-anchor="middle"></text>
  <text class="label" x="170" y="57" text-anchor="middle">MedianCut</text>
  <text class="mono" x="18" y="108">+quality: Int</text>
<text class="mono" x="18" y="132">+ignoreWhite: Boolean</text>
<text class="mono" x="18" y="156">+extract(image, count) List~DominantColor~</text>
</g>
<rect x="716.5" y="591" width="116" height="26" rx="13" fill="#ffffff" opacity="0.94"/>
<text class="small" x="774.5" y="609" text-anchor="middle">produces</text>
<rect x="614" y="468" width="116" height="26" rx="13" fill="#ffffff" opacity="0.94"/>
<text class="small" x="672" y="486" text-anchor="middle">dominantColors()</text>
<rect x="409" y="432" width="116" height="26" rx="13" fill="#ffffff" opacity="0.94"/>
<text class="small" x="467" y="450" text-anchor="middle">blurScore()</text>
<rect x="819" y="468" width="116" height="26" rx="13" fill="#ffffff" opacity="0.94"/>
<text class="small" x="877" y="486" text-anchor="middle">readExif()</text>
<rect x="1434" y="468" width="116" height="26" rx="13" fill="#ffffff" opacity="0.94"/>
<text class="small" x="1492" y="486" text-anchor="middle">readExif()</text>
<rect x="1229" y="468" width="116" height="26" rx="13" fill="#ffffff" opacity="0.94"/>
<text class="small" x="1287" y="486" text-anchor="middle">readExif()</text>
</svg>
