<svg xmlns="http://www.w3.org/2000/svg" width="1754" height="1499" viewBox="0 0 1754 1499" role="img" aria-label="images Class Structure 2">
<defs>
  <filter id="shadow" x="-8%" y="-8%" width="116%" height="116%"><feDropShadow dx="0" dy="8" stdDeviation="9" flood-color="#1f2937" flood-opacity="0.10"/></filter>
  <marker id="openArrow" markerWidth="12" markerHeight="10" refX="10" refY="5" orient="auto" markerUnits="strokeWidth"><path d="M 1 1 L 10 5 L 1 9" fill="none" stroke="#758297" stroke-width="1.8" stroke-linecap="round" stroke-linejoin="round"/></marker>
  <marker id="inherit" markerWidth="14" markerHeight="12" refX="12" refY="6" orient="auto" markerUnits="strokeWidth"><path d="M 0 1 L 12 6 L 0 11 Z" fill="#ffffff" stroke="#758297" stroke-width="1.8"/></marker>
  <style>
    .canvas{fill:#f7f9fc}.frame{fill:#fff;stroke:#d8e0ea;stroke-width:1.5}
    .title{font-family:"Architects Daughter","Comic Sans MS","Comic Sans",cursive;font-size:43px;font-weight:400;fill:#102033}
    .subtitle{font-family:"Comic Sans MS","Comic Sans","Comic Neue",Arial,sans-serif;font-size:15px;font-weight:400;fill:#536273}
    .label{font-family:"Architects Daughter","Comic Sans MS","Comic Sans",cursive;font-size:25px;font-weight:400;fill:#102033}
    .smallLabel{font-family:"Architects Daughter","Comic Sans MS","Comic Sans",cursive;font-size:21px;font-weight:400;fill:#102033}
    .mono{font-family:"Comic Sans MS","Comic Sans","Comic Neue",Arial,sans-serif;font-size:12px;font-weight:400;fill:#102033}
    .small{font-family:"Comic Sans MS","Comic Sans","Comic Neue",Arial,sans-serif;font-size:12px;font-weight:400;fill:#536273}
    .strong{font-family:"Comic Sans MS","Comic Sans","Comic Neue",Arial,sans-serif;font-size:13px;font-weight:400;fill:#102033}
    .card{stroke-width:2.1;filter:url(#shadow)}.compartment{stroke-width:1.5;fill:none}
    .line{stroke:#758297;stroke-width:2.1;fill:none;marker-end:url(#openArrow)}
    .plainLine{stroke:#758297;stroke-width:2.1;fill:none}
    .dashed{stroke:#758297;stroke-width:2.1;stroke-dasharray:7 6;fill:none;marker-end:url(#openArrow)}
    .inheritLine{stroke:#758297;stroke-width:2.2;fill:none;marker-end:url(#inherit)}
    .implLine{stroke:#758297;stroke-width:2.2;stroke-dasharray:8 7;fill:none;marker-end:url(#inherit)}
  </style>
</defs>
<rect class="canvas" width="1754" height="1499"/>
<rect class="frame" x="32" y="28" width="1690" height="1443" rx="28"/>
<text class="title" x="66" y="82">images Class Structure 2</text>
<text class="subtitle" x="70" y="118">UML classes from the original Mermaid source</text>
<path class="line" d="M262 172 C262 257 672 257 672 342"/>
<path class="line" d="M262 172 C262 257 1082 257 1082 342"/>
<path class="line" d="M262 363 C262 610.5 672 610.5 672 858"/>
<path class="line" d="M1492 426 C1492 642 262 642 262 858"/>
<path class="line" d="M1492 426 C1492 481 1492 481 1492 536"/>
<path class="line" d="M1492 172 C1492 257 672 257 672 342"/>
<path class="line" d="M1492 172 C1492 257 1082 257 1082 342"/>
<path class="line" d="M1492 426 C1492 642 672 642 672 858"/>
<path class="line" d="M1082 748 C1082 803 1082 803 1082 858"/>
<path class="line" d="M1082 748 C1082 943 877 943 877 1138"/>
<path class="line" d="M1082 748 C1082 943 467 943 467 1138"/>
<path class="line" d="M1082 748 C1082 803 1492 803 1492 858"/>
<path class="line" d="M1082 536 C1082 481 1492 481 1492 426"/>
<path class="line" d="M1082 748 C1082 943 1287 943 1287 1138"/>
<path class="line" d="M1082 536 C1082 621 672 621 672 706"/>
<path class="line" d="M1082 536 C1082 621 262 621 262 706"/>
<g transform="translate(92,180)">
  <rect class="card" x="0" y="0" width="340" height="175" rx="5" fill="#E8F3FF" stroke="#5B8DEF"/>
  <line class="compartment" x1="0" y1="78" x2="340" y2="78" stroke="#5B8DEF"/>
  <text class="small" x="170" y="26" text-anchor="middle"></text>
  <text class="label" x="170" y="61" text-anchor="middle">ColorSpaceConverter</text>
  <text class="mono" x="18" y="108">+rgbToHsv(r, g, b) FloatArray</text>
<text class="mono" x="18" y="129">+hsvToRgb(h, s, v) IntArray</text>
<text class="mono" x="18" y="150">+kelvinToRgb(kelvin) IntArray</text>
</g>
<g transform="translate(502,180)">
  <rect class="card" x="0" y="0" width="340" height="154" rx="5" fill="#EAF7EF" stroke="#58A978"/>
  <line class="compartment" x1="0" y1="78" x2="340" y2="78" stroke="#58A978"/>
  <text class="small" x="170" y="26" text-anchor="middle"></text>
  <text class="label" x="170" y="61" text-anchor="middle">ColorTemperatureFilter</text>
  <text class="mono" x="18" y="108">+kelvin: Int</text>
<text class="mono" x="18" y="129">+apply(image) ImmutableImage</text>
</g>
<g transform="translate(912,180)">
  <rect class="card" x="0" y="0" width="340" height="154" rx="5" fill="#FFF3D9" stroke="#D6A441"/>
  <line class="compartment" x1="0" y1="78" x2="340" y2="78" stroke="#D6A441"/>
  <text class="small" x="170" y="26" text-anchor="middle"></text>
  <text class="label" x="170" y="61" text-anchor="middle">HueAdjustFilter</text>
  <text class="mono" x="18" y="108">+deltaDegrees: Float</text>
<text class="mono" x="18" y="129">+apply(image) ImmutableImage</text>
</g>
<g transform="translate(1322,180)">
  <rect class="card" x="0" y="0" width="340" height="238" rx="5" fill="#FDECEF" stroke="#DC6B82"/>
  <line class="compartment" x1="0" y1="78" x2="340" y2="78" stroke="#DC6B82"/>
  <text class="small" x="170" y="26" text-anchor="middle"></text>
  <text class="label" x="170" y="61" text-anchor="middle">ImageFilterChain</text>
  <text class="mono" x="18" y="108">+brightness(factor)</text>
<text class="mono" x="18" y="129">+contrast(factor)</text>
<text class="mono" x="18" y="150">+saturation(factor)</text>
<text class="mono" x="18" y="171">+hue(deltaDegrees)</text>
<text class="mono" x="18" y="192">+colorTemperature(kelvin)</text>
<text class="mono" x="18" y="213">+gaussianBlur(radius)</text>
</g>
<g transform="translate(92,544)">
  <rect class="card" x="0" y="0" width="340" height="154" rx="5" fill="#E9F7F6" stroke="#45A7A1"/>
  <line class="compartment" x1="0" y1="78" x2="340" y2="78" stroke="#45A7A1"/>
  <text class="small" x="170" y="26" text-anchor="middle"></text>
  <text class="label" x="170" y="61" text-anchor="middle">ImageScaler</text>
  <text class="mono" x="18" y="108">+scale(image, width, height)</text>
<text class="mono" x="18" y="129">ImmutableImage</text>
</g>
<g transform="translate(502,544)">
  <rect class="card" x="0" y="0" width="340" height="154" rx="5" fill="#F1ECFF" stroke="#8A72D6"/>
  <line class="compartment" x1="0" y1="78" x2="340" y2="78" stroke="#8A72D6"/>
  <text class="small" x="170" y="26" text-anchor="middle"></text>
  <text class="label" x="170" y="61" text-anchor="middle">ImageSplitter</text>
  <text class="mono" x="18" y="108">+split(image, rows, cols)</text>
<text class="mono" x="18" y="129">List~ImmutableImage~</text>
</g>
<g transform="translate(912,544)">
  <rect class="card" x="0" y="0" width="340" height="196" rx="5" fill="#F7F1E7" stroke="#B88A44"/>
  <line class="compartment" x1="0" y1="78" x2="340" y2="78" stroke="#B88A44"/>
  <text class="small" x="170" y="26" text-anchor="middle"></text>
  <text class="label" x="170" y="61" text-anchor="middle">ImmutableImage</text>
  <text class="mono" x="18" y="108">+width: Int</text>
<text class="mono" x="18" y="129">+height: Int</text>
<text class="mono" x="18" y="150">+scale(width, height) ImmutableImage</text>
<text class="mono" x="18" y="171">+output(writer) ByteArray</text>
</g>
<g transform="translate(1322,544)">
  <rect class="card" x="0" y="0" width="340" height="175" rx="5" fill="#EEF6D9" stroke="#8BA84D"/>
  <line class="compartment" x1="0" y1="78" x2="340" y2="78" stroke="#8BA84D"/>
  <text class="small" x="170" y="26" text-anchor="middle"></text>
  <text class="label" x="170" y="61" text-anchor="middle">MedianBlurFilter</text>
  <text class="mono" x="18" y="108">+radius: Int</text>
<text class="mono" x="18" y="129">+boundary: MedianBoundaryMode</text>
<text class="mono" x="18" y="150">+apply(image) ImmutableImage</text>
</g>
<g transform="translate(92,866)">
  <rect class="card" x="0" y="0" width="340" height="154" rx="5" fill="#E8F3FF" stroke="#5B8DEF"/>
  <line class="compartment" x1="0" y1="78" x2="340" y2="78" stroke="#5B8DEF"/>
  <text class="small" x="170" y="26" text-anchor="middle"></text>
  <text class="label" x="170" y="61" text-anchor="middle">RoundedCornerFilter</text>
  <text class="mono" x="18" y="108">+radius: Int</text>
<text class="mono" x="18" y="129">+apply(image) ImmutableImage</text>
</g>
<g transform="translate(502,866)">
  <rect class="card" x="0" y="0" width="340" height="154" rx="5" fill="#EAF7EF" stroke="#58A978"/>
  <line class="compartment" x1="0" y1="78" x2="340" y2="78" stroke="#58A978"/>
  <text class="small" x="170" y="26" text-anchor="middle"></text>
  <text class="label" x="170" y="61" text-anchor="middle">SaturationAdjustFilter</text>
  <text class="mono" x="18" y="108">+factor: Float</text>
<text class="mono" x="18" y="129">+apply(image) ImmutableImage</text>
</g>
<g transform="translate(912,866)">
  <rect class="card" x="0" y="0" width="340" height="133" rx="5" fill="#FFF3D9" stroke="#D6A441"/>
  <line class="compartment" x1="0" y1="78" x2="340" y2="78" stroke="#D6A441"/>
  <text class="small" x="170" y="26" text-anchor="middle"></text>
  <text class="label" x="170" y="61" text-anchor="middle">SuspendGif2WebpWriter</text>
  <text class="mono" x="18" y="108">+writeImage(image) ByteArray</text>
</g>
<g transform="translate(1322,866)">
  <rect class="card" x="0" y="0" width="340" height="133" rx="5" fill="#FDECEF" stroke="#DC6B82"/>
  <line class="compartment" x1="0" y1="78" x2="340" y2="78" stroke="#DC6B82"/>
  <text class="small" x="170" y="26" text-anchor="middle"></text>
  <text class="label" x="170" y="61" text-anchor="middle">SuspendJpegWriter</text>
  <text class="mono" x="18" y="108">+writeImage(image) ByteArray</text>
</g>
<g transform="translate(297,1146)">
  <rect class="card" x="0" y="0" width="340" height="133" rx="5" fill="#E9F7F6" stroke="#45A7A1"/>
  <line class="compartment" x1="0" y1="78" x2="340" y2="78" stroke="#45A7A1"/>
  <text class="small" x="170" y="26" text-anchor="middle"></text>
  <text class="label" x="170" y="61" text-anchor="middle">SuspendPngWriter</text>
  <text class="mono" x="18" y="108">+writeImage(image) ByteArray</text>
</g>
<g transform="translate(707,1146)">
  <rect class="card" x="0" y="0" width="340" height="133" rx="5" fill="#F1ECFF" stroke="#8A72D6"/>
  <line class="compartment" x1="0" y1="78" x2="340" y2="78" stroke="#8A72D6"/>
  <text class="small" x="170" y="26" text-anchor="middle"></text>
  <text class="label" x="170" y="61" text-anchor="middle">SuspendWebpWriter</text>
  <text class="mono" x="18" y="108">+writeImage(image) ByteArray</text>
</g>
<g transform="translate(1117,1146)">
  <rect class="card" x="0" y="0" width="340" height="133" rx="5" fill="#F7F1E7" stroke="#B88A44"/>
  <line class="compartment" x1="0" y1="78" x2="340" y2="78" stroke="#B88A44"/>
  <text class="small" x="170" y="26" text-anchor="middle"></text>
  <text class="label" x="170" y="61" text-anchor="middle">WatermarkFilter</text>
  <text class="mono" x="18" y="108">+apply(image) ImmutableImage</text>
</g>
</svg>
