<svg xmlns="http://www.w3.org/2000/svg" width="1280" height="600" viewBox="0 0 1280 600" role="img" aria-label="Filter Latency Benchmark">
<defs>
  <filter id="shadow" x="-8%" y="-8%" width="116%" height="116%"><feDropShadow dx="0" dy="8" stdDeviation="9" flood-color="#1f2937" flood-opacity="0.10"/></filter>
  <style>
    .canvas{fill:#f7f9fc}.frame{fill:#fff;stroke:#d8e0ea;stroke-width:1.5}
    .title{font-family:"Architects Daughter","Comic Sans MS","Comic Sans",cursive;font-size:42px;font-weight:400;fill:#102033}
    .subtitle{font-family:"Comic Sans MS","Comic Sans","Comic Neue",Arial,sans-serif;font-size:16px;font-weight:400;fill:#536273}
    .axis{font-family:"Comic Sans MS","Comic Sans","Comic Neue",Arial,sans-serif;font-size:13px;font-weight:400;fill:#536273}
    .label{font-family:"Comic Sans MS","Comic Sans","Comic Neue",Arial,sans-serif;font-size:15px;font-weight:400;fill:#102033}
    .small{font-family:"Comic Sans MS","Comic Sans","Comic Neue",Arial,sans-serif;font-size:13px;font-weight:400;fill:#536273}
    .value{font-family:"Comic Sans MS","Comic Sans","Comic Neue",Arial,sans-serif;font-size:13px;font-weight:700;fill:#102033}
    .note{font-family:"Comic Sans MS","Comic Sans","Comic Neue",Arial,sans-serif;font-size:13px;font-weight:400;fill:#536273}
    .panel{filter:url(#shadow)}
  </style>
</defs>
<rect class="canvas" width="1280" height="600"/>
<rect class="frame" x="32" y="28" width="1216" height="544" rx="28"/>
<text class="title" x="66" y="82" >Filter Latency Benchmark</text>
<text class="subtitle" x="70" y="116" >Scrimage filter operations on the 1240x1754 document image</text>
<rect x="58" y="135" width="1164" height="390" rx="18" fill="#FFFFFF" stroke="#E2E8F0" class="panel"/><line x1="230" y1="142" x2="230" y2="500" stroke="#D8E0EA" stroke-width="1" /><text class="axis" x="230" y="524" text-anchor="middle">0</text><line x1="416.25" y1="142" x2="416.25" y2="500" stroke="#D8E0EA" stroke-width="1" /><text class="axis" x="416.25" y="524" text-anchor="middle">25</text><line x1="602.5" y1="142" x2="602.5" y2="500" stroke="#D8E0EA" stroke-width="1" /><text class="axis" x="602.5" y="524" text-anchor="middle">50</text><line x1="788.75" y1="142" x2="788.75" y2="500" stroke="#D8E0EA" stroke-width="1" /><text class="axis" x="788.75" y="524" text-anchor="middle">75</text><line x1="975" y1="142" x2="975" y2="500" stroke="#D8E0EA" stroke-width="1" /><text class="axis" x="975" y="524" text-anchor="middle">100</text><text class="label" x="86" y="205" >Sepia</text><rect x="230" y="166" width="108.0995" height="18" rx="5" fill="#F59AB2" stroke="none" /><text class="value" x="346.09950000000003" y="180" >14.51</text><rect x="230" y="194" width="453.1835" height="18" rx="5" fill="#F5C15D" stroke="none" /><text class="value" x="691.1835" y="208" >60.83</text><rect x="230" y="222" width="452.215" height="18" rx="5" fill="#8EC5D9" stroke="none" /><text class="value" x="690.2149999999999" y="236" >60.70</text><text class="label" x="86" y="317" >Grayscale</text><rect x="230" y="278" width="46.637" height="18" rx="5" fill="#F59AB2" stroke="none" /><text class="value" x="284.637" y="292" >6.26</text><rect x="230" y="306" width="742.914" height="18" rx="5" fill="#F5C15D" stroke="none" /><text class="value" x="980.914" y="320" >99.72</text><rect x="230" y="334" width="723.0224999999999" height="18" rx="5" fill="#8EC5D9" stroke="none" /><text class="value" x="961.0224999999999" y="348" >97.05</text><text class="label" x="86" y="429" >Blur</text><rect x="230" y="390" width="206.812" height="18" rx="5" fill="#F59AB2" stroke="none" /><text class="value" x="444.812" y="404" >27.76</text><rect x="230" y="418" width="548.618" height="18" rx="5" fill="#F5C15D" stroke="none" /><text class="value" x="786.618" y="432" >73.64</text><rect x="230" y="446" width="631.8345" height="18" rx="5" fill="#8EC5D9" stroke="none" /><text class="value" x="869.8345" y="460" >84.81</text><text class="axis" x="640" y="554" text-anchor="middle">AverageTime ms/op, scrimage filters only, lower is better</text><rect x="1082" y="164" width="18" height="12" rx="5" fill="#F59AB2" stroke="none" /><text class="small" x="1110" y="176" >macOS Java 25</text>
<rect x="1082" y="188" width="18" height="12" rx="5" fill="#F5C15D" stroke="none" /><text class="small" x="1110" y="200" >Linux java25</text>
<rect x="1082" y="212" width="18" height="12" rx="5" fill="#8EC5D9" stroke="none" /><text class="small" x="1110" y="224" >Linux java21</text>
</svg>
