<svg xmlns="http://www.w3.org/2000/svg" width="1480" height="680" viewBox="0 0 1480 680" role="img" aria-label="Resize Latency">
<defs>
  <style>
    .canvas{fill:#ffffff}.panel{fill:#f3f6fa;stroke:#cbd5e1;stroke-width:1.4;stroke-dasharray:8 6}.chart-panel{fill:#ffffff;stroke:#bfdbfe;stroke-width:1.7}.card{fill:#ffffff;stroke:#94a3b8;stroke-width:1.9}.badge-text{font-family:"Comic Mono";font-size:11px;fill:#374151;font-weight:700}
    .edge-blue{stroke:#2563eb;stroke-width:2.1;fill:none;marker-end:url(#arrow-blue);stroke-linecap:round;stroke-linejoin:round}.edge-green{stroke:#16a34a;stroke-width:2.1;fill:none;marker-end:url(#arrow-green);stroke-linecap:round;stroke-linejoin:round}.edge-orange{stroke:#ea580c;stroke-width:2;fill:none;marker-end:url(#arrow-orange);stroke-linecap:round;stroke-linejoin:round}.edge-purple{stroke:#9333ea;stroke-width:2;fill:none;marker-end:url(#arrow-purple);stroke-linecap:round;stroke-linejoin:round}.edge-gray{stroke:#6b7280;stroke-width:1.8;fill:none;marker-end:url(#arrow-gray);stroke-linecap:round;stroke-linejoin:round;stroke-dasharray:6 4}.dashed{stroke-dasharray:6 4}
    .title{font-family:"Architects Daughter";font-size:42px;fill:#111827;font-weight:400}.subtitle{font-family:"Comic Mono";font-size:16px;fill:#6b7280;font-weight:400}.card-title{font-family:"Architects Daughter";font-size:23px;fill:#111827;font-weight:400}.detail,.label,.note,.axis,.value{font-family:"Comic Mono";fill:#6b7280;font-weight:400}.detail{font-size:13px}.label{font-size:12px}.note{font-size:13px}.axis{font-size:14px}.value{font-size:14px}.panel-title{font-family:"Comic Mono";font-size:16px;fill:#4b5563;font-weight:700;letter-spacing:0.8px}
  </style>
</defs>
<rect class="canvas" width="1480" height="680"/>
<text class="title" x="70" y="82">Resize Latency</text>
<text class="subtitle" x="74" y="116">Scrimage vs vips resize, AverageTime ms/op.</text>
<desc>Source: images-benchmark README resize table. Unit: ms/op. Direction: lower is better.</desc>
<rect class="chart-panel" x="56" y="146" width="1368" height="430" rx="12"/>
<text class="note" x="88" y="190">Measured ranking</text>
<text class="axis" x="260" y="190">ms/op · lower is better</text>
<text class="axis" x="1330.0" y="214" text-anchor="end">0 to 118.44 (log scale)</text>
<text class="note" x="740.0" y="628" text-anchor="middle">https://github.com/bluetape4k/bluetape4k-image | project: bluetape4k-image | module: images-benchmark</text>
<rect x="1010" y="174" width="22" height="14" rx="4" fill="#dbeafe" stroke="#2563eb" stroke-width="1.4"/>
<text class="axis" x="1042" y="186">scrimage</text>
<rect x="1170" y="174" width="22" height="14" rx="4" fill="#ffedd5" stroke="#ea580c" stroke-width="1.4"/>
<text class="axis" x="1202" y="186">vips</text>
<line x1="260.0" y1="226" x2="260.0" y2="516" stroke="#dbe3ee" stroke-width="1" stroke-dasharray="5 7"/>
<text class="axis" x="260.0" y="544" text-anchor="middle">0</text>
<line x1="527.5" y1="226" x2="527.5" y2="516" stroke="#dbe3ee" stroke-width="1" stroke-dasharray="5 7"/>
<text class="axis" x="527.5" y="544" text-anchor="middle">29.61</text>
<line x1="795.0" y1="226" x2="795.0" y2="516" stroke="#dbe3ee" stroke-width="1" stroke-dasharray="5 7"/>
<text class="axis" x="795.0" y="544" text-anchor="middle">59.22</text>
<line x1="1062.5" y1="226" x2="1062.5" y2="516" stroke="#dbe3ee" stroke-width="1" stroke-dasharray="5 7"/>
<text class="axis" x="1062.5" y="544" text-anchor="middle">88.83</text>
<line x1="1330.0" y1="226" x2="1330.0" y2="516" stroke="#dbe3ee" stroke-width="1" stroke-dasharray="5 7"/>
<text class="axis" x="1330.0" y="544" text-anchor="middle">118.44</text>
<line x1="260" y1="516" x2="1330" y2="516" stroke="#94a3b8" stroke-width="1.2"/>
<text class="axis" x="232" y="269.5" text-anchor="end">macOS Java25</text>
<rect x="260" y="238" width="1070.0" height="20" rx="6" fill="#edf2f7" stroke="#dbe3ee" stroke-width="1"/>
<rect x="260" y="238" width="1064.1" height="20" rx="6" fill="#dbeafe" stroke="#2563eb" stroke-width="1.5"/>
<text class="value" x="1312.1" y="252" text-anchor="end">115.34</text>
<rect x="260" y="265" width="1070.0" height="20" rx="6" fill="#edf2f7" stroke="#dbe3ee" stroke-width="1"/>
<rect x="260" y="265" width="49.2" height="20" rx="6" fill="#ffedd5" stroke="#ea580c" stroke-width="1.5"/>
<text class="value" x="321.2" y="279" text-anchor="start">0.246</text>
<text class="axis" x="232" y="359.5" text-anchor="end">CI Java25</text>
<rect x="260" y="328" width="1070.0" height="20" rx="6" fill="#edf2f7" stroke="#dbe3ee" stroke-width="1"/>
<rect x="260" y="328" width="1067.5" height="20" rx="6" fill="#dbeafe" stroke="#2563eb" stroke-width="1.5"/>
<text class="value" x="1315.5" y="342" text-anchor="end">117.11</text>
<rect x="260" y="355" width="1070.0" height="20" rx="6" fill="#edf2f7" stroke="#dbe3ee" stroke-width="1"/>
<rect x="260" y="355" width="57.0" height="20" rx="6" fill="#ffedd5" stroke="#ea580c" stroke-width="1.5"/>
<text class="value" x="329.0" y="369" text-anchor="start">0.29</text>
<text class="axis" x="232" y="449.5" text-anchor="end">CI Java21</text>
<rect x="260" y="418" width="1070.0" height="20" rx="6" fill="#edf2f7" stroke="#dbe3ee" stroke-width="1"/>
<rect x="260" y="418" width="1070.0" height="20" rx="6" fill="#dbeafe" stroke="#2563eb" stroke-width="1.5"/>
<text class="value" x="1318.0" y="432" text-anchor="end">118.44</text>
<rect x="260" y="445" width="1070.0" height="20" rx="6" fill="#edf2f7" stroke="#dbe3ee" stroke-width="1"/>
<rect x="260" y="445" width="60.4" height="20" rx="6" fill="#ffedd5" stroke="#ea580c" stroke-width="1.5"/>
<text class="value" x="332.4" y="459" text-anchor="start">0.31</text>
</svg>
